<svg class="pz-nav__logo" width="160" height="21" fill="none" xmlns="http://www.w3.org/2000/svg"><path d="M20.87 1.661h-.5v18.153h.5V1.661zM15.462 12.901c-.633 1.689-1.847 3.06-3.536 3.747V12.9l2.058-1.847-2.058-1.794V6.674c1.847-.105 3.166-1.53 3.166-3.166 0-2.216-2.11-3.008-3.271-3.008-.264 0-.528 0-.95.106V.71h.475c.844 0 1.477.37 1.477 1.161 0 .58-.475 1.161-1.319 1.161-2.058 0-4.486-1.636-7.071-1.636C2.11 1.397.475 3.14.475 4.88S1.478 7.202 2.533 7.57v-.105c-.317-.211-.58-.58-.58-1.161 0-.792.738-1.425 1.635-1.425 2.217 0 5.752 1.847 7.969 1.847h.21v2.586L9.71 11.054l2.058 1.847v3.8c-.845.316-1.742.422-2.639.422-3.43 0-5.593-2.058-5.593-5.541 0-.845.105-1.636.316-2.428l1.689-.738v7.651l3.483-1.53v-7.81L3.905 8.996c.528-1.53 1.583-2.586 2.85-3.219v-.053C3.325 6.464 0 9.05 0 12.954c0 4.485 3.8 7.599 8.18 7.599 4.696 0 7.335-3.114 7.335-7.652h-.053zM41.794 18.706c-2.269 1.108-3.8 1.425-6.174 1.425-5.805 0-9.762-3.958-9.762-9.921 0-2.903.897-5.225 2.532-6.755 1.478-1.372 3.589-2.11 5.752-2.11 1.478 0 2.639.263 3.905.95V1.66h3.694v6.966h-3.694c-.21-2.111-1.002-3.114-2.374-3.114-1.742 0-2.955 1.847-2.955 4.433 0 1.425.37 2.533 1.055 3.483.844 1.213 2.322 1.9 3.8 1.9 1.213 0 2.163-.317 4.221-1.584v4.96zM54.723 11.424c-1.425 0-2.058 0-2.744.21-.792.159-1.372.634-1.742 1.214-.21.422-.316.95-.316 2.375v1.266h1.372v3.378h-8.285v-3.378h1.055v-5.752h-1.055V7.36h6.86v1.9c1.108-1.214 2.375-2.216 4.063-2.216h.74v4.38h.052zM62.427 20.078c-3.852 0-7.546-2.27-7.546-6.438 0-4.222 3.589-6.491 7.494-6.491 3.957 0 7.493 2.27 7.493 6.49 0 4.222-3.588 6.439-7.44 6.439zm-.105-9.604c-1.372 0-1.583 1.794-1.583 2.85 0 1.055.105 3.218 1.583 3.218 1.477 0 1.688-1.741 1.688-2.85 0-1.16-.052-3.218-1.688-3.218zM77.467 20.078c-1.266 0-2.216-.211-4.01-.897v.633H70.66v-4.116h2.744c.316 1.108.791 1.636 1.847 1.636.791 0 1.266-.317 1.266-.95 0-.422-.264-.792-.844-1.003l-2.692-1.16c-1.371-.581-2.11-1.795-2.11-3.114 0-2.111 2.11-3.958 4.749-3.958 1.108 0 2.005.211 3.219.792v-.528h2.797v3.958H79.05c-.211-1.267-.686-1.9-1.636-1.9-.686 0-1.213.422-1.213.95 0 .475.316.844.95 1.108l2.638 1.055c1.741.686 2.533 1.795 2.533 3.272.105 2.375-1.953 4.222-4.855 4.222zM89.868 20.078c-1.266 0-2.216-.211-4.01-.897v.633H83.06v-4.116h2.744c.316 1.108.791 1.636 1.847 1.636.791 0 1.266-.317 1.266-.95 0-.422-.264-.792-.844-1.003l-2.691-1.16c-1.373-.581-2.111-1.795-2.111-3.114 0-2.111 2.11-3.958 4.75-3.958 1.107 0 2.004.211 3.218.792v-.528h2.797v3.958H91.45c-.21-1.267-.686-1.9-1.636-1.9-.686 0-1.213.422-1.213.95 0 .475.316.844.95 1.108l2.638 1.055c1.741.686 2.533 1.795 2.533 3.272.053 2.375-1.953 4.222-4.855 4.222zM115.62 10.738h-.475l-2.849 9.023h-4.855l-2.006-5.857-2.374 5.857h-4.697l-2.269-9.023h-.792V7.36h7.019v3.378h-.897l.58 3.746h.053l2.744-7.124h3.588l2.111 7.124h.053l1.108-3.746h-.739V7.36h4.697v3.378zM123.325 20.078c-3.853 0-7.547-2.27-7.547-6.438 0-4.222 3.589-6.491 7.494-6.491 3.958 0 7.493 2.27 7.493 6.49 0 4.222-3.588 6.439-7.44 6.439zm-.106-9.604c-1.372 0-1.583 1.794-1.583 2.85 0 1.055.105 3.218 1.583 3.218s1.689-1.741 1.689-2.85c0-1.16-.053-3.218-1.689-3.218zM143.377 11.424c-1.424 0-2.058 0-2.744.21-.791.159-1.372.634-1.741 1.214-.211.422-.317.95-.317 2.375v1.266h1.372v3.378h-8.285v-3.378h1.056v-5.752h-1.056V7.36h6.86v1.9c1.109-1.214 2.375-2.216 4.064-2.216h.739v4.38h.052zM159.947 19.814h-6.913v-1.161c-1.266.844-2.269 1.372-3.852 1.372-3.641 0-5.383-3.272-5.383-6.543 0-3.378 1.953-6.386 5.594-6.386 1.425 0 2.533.422 3.641 1.267V5.038h-1.372V1.661h7.23v14.776H160v3.377h-.053zm-8.549-9.34c-1.477 0-1.794 1.9-1.794 3.008 0 1.16.106 3.06 1.689 3.06 1.53 0 1.794-2.005 1.794-3.166.053-1.055-.317-2.902-1.689-2.902z" fill="#000"/></svg>